<svg width="245" height="77" viewBox="0 0 245 77" fill="none" xmlns="http://www.w3.org/2000/svg">
<g filter="url(#filter0_d_5_15)">
<path d="M7.65616 69C6.06652 68.0902 5.05976 67.152 4.63585 66.1854C4.21195 65.2188 4 64.3943 4 63.712C4 62.1768 4.50338 60.1298 5.51015 57.5711C6.56991 54.9555 7.97408 51.9703 9.72268 48.6156C11.4713 45.2608 13.4583 41.7639 15.6838 38.1248C14.0412 38.0111 12.478 37.9258 10.9944 37.869C9.51073 37.8121 7.60317 37.7837 5.27171 37.7837H4C4.74183 35.7367 5.90756 34.3152 7.49719 33.5192C9.13981 32.6663 11.0474 32.2398 13.2199 32.2398C14.1207 32.2398 15.0479 32.2967 16.0017 32.4104C17.0085 32.5241 18.0418 32.6378 19.1015 32.7515C21.7509 28.6576 24.3473 24.7911 26.8907 21.152C29.4871 17.513 31.9246 14.2435 34.203 11.3436C36.5345 8.3869 38.601 5.97034 40.4026 4.09395C42.946 1.36465 44.8006 0 45.9663 0C46.7081 0 47.5295 0.312733 48.4302 0.938198C49.384 1.56366 50.3643 2.35971 51.3711 3.32633C50.8412 3.78122 50.1523 4.94685 49.3045 6.82324C48.5097 8.69963 47.6354 11.0878 46.6816 13.9876C45.7809 16.8307 44.8536 19.958 43.8998 23.3696C42.999 26.7812 42.1777 30.2497 41.4359 33.775C40.694 37.3004 40.0847 40.6836 39.6078 43.9246C39.1839 47.1088 38.9719 49.9234 38.9719 52.3684C38.9719 54.6428 39.1839 56.3486 39.6078 57.4858C40.0317 58.5661 40.747 59.1063 41.7538 59.1063C42.9725 59.1063 44.4827 58.1113 46.2842 56.1211C48.0858 54.131 50.0994 50.89 52.3248 46.398L53.7555 48.0185C52.1129 52.6811 49.9669 56.5192 47.3175 59.5328C44.7211 62.5464 41.9392 64.0532 38.9719 64.0532C36.4285 64.0532 34.6269 62.8875 33.5672 60.5562C32.5074 58.1681 31.9775 54.9271 31.9775 50.8331C31.9775 49.5253 32.057 48.047 32.216 46.398C32.3749 44.7491 32.6399 42.7021 33.0108 40.2571C30.6793 39.8591 28.6128 39.5464 26.8112 39.3189C25.0096 39.0915 23.2875 38.864 21.6449 38.6366C19.1015 43.4697 16.6376 48.4734 14.2531 53.6477C11.8687 58.822 9.66969 63.9394 7.65616 69ZM33.8056 36.0779C34.4945 32.7231 35.2893 29.3399 36.1901 25.9283C37.1438 22.4598 38.1241 19.1619 39.1309 16.0346C40.1906 12.8504 41.2239 10.0074 42.2307 7.50557C40.641 8.87021 38.866 10.8319 36.9054 13.3906C34.9449 15.9493 32.8783 18.9629 30.7058 22.4314C28.5863 25.8999 26.4138 29.6811 24.1883 33.775C25.778 34.1162 27.3676 34.4858 28.9572 34.8838C30.5469 35.2818 32.163 35.6799 33.8056 36.0779Z" fill="white"/>
<path d="M56.941 64.1384C54.4506 64.1384 52.702 63.2571 51.6952 61.4944C50.7414 59.6749 50.2645 57.5426 50.2645 55.0977C50.2645 52.3115 50.7414 49.042 51.6952 45.2892C52.649 41.5365 53.8942 37.6131 55.4308 33.5192C57.0205 29.3684 58.7426 25.3313 60.5971 21.4079C62.5047 17.4277 64.4123 13.8455 66.3198 10.6613C68.2274 7.47713 69.976 4.94685 71.5656 3.07046C73.2082 1.13721 74.5329 0.170584 75.5397 0.170584C76.2285 0.170584 76.8114 0.568606 77.2883 1.36465C77.7652 2.10384 78.1361 3.0136 78.401 4.09395C78.719 5.11743 78.8779 6.08406 78.8779 6.99382C78.8779 8.52905 78.507 10.5476 77.7652 13.0494C77.0763 15.4944 76.0696 18.1953 74.7449 21.152C73.4732 24.1088 71.9365 27.1508 70.1349 30.2781C68.3863 33.3486 66.4258 36.2769 64.2533 39.063C62.1338 41.8492 59.8553 44.2658 57.4179 46.3127C57.2059 47.7342 56.994 49.1557 56.782 50.5773C56.6231 51.9419 56.5436 53.1928 56.5436 54.33C56.5436 56.377 56.8615 57.8838 57.4974 58.8504C58.1332 59.7602 58.9545 60.2151 59.9613 60.2151C61.286 60.2151 62.6372 59.5612 64.0149 58.2534C65.4455 56.8888 66.7967 55.1829 68.0684 53.136C69.3931 51.0321 70.5323 48.8714 71.4861 46.6539L73.3937 47.7627C71.1152 52.8232 68.5718 56.8319 65.7634 59.7886C62.9551 62.6885 60.0143 64.1384 56.941 64.1384ZM58.8485 41.0247C60.6501 38.9209 62.3457 36.6465 63.9354 34.2015C65.578 31.6996 67.0616 29.1693 68.3863 26.6106C69.764 24.0519 70.9563 21.5785 71.963 19.1904C72.9698 16.8022 73.7381 14.67 74.268 12.7936C74.8509 10.8603 75.1688 9.3251 75.2218 8.18789C75.2218 8.13103 75.2218 8.1026 75.2218 8.1026C75.2218 8.04574 75.2218 7.98888 75.2218 7.93202C74.7979 7.93202 74.109 8.58591 73.1552 9.8937C72.2545 11.1446 71.1682 12.8789 69.8965 15.0964C68.6248 17.314 67.3001 19.8443 65.9224 22.6873C64.5977 25.5303 63.2995 28.5439 62.0278 31.7281C60.8091 34.8554 59.7493 37.9543 58.8485 41.0247Z" fill="white"/>
<path d="M105.99 65.759C102.758 65.759 100.268 64.8208 98.5192 62.9444C96.7706 61.1249 95.7638 58.9073 95.4989 56.2917C93.2204 59.1347 90.624 61.3523 87.7097 62.9444C84.7954 64.5365 81.8546 65.3325 78.8872 65.3325C75.443 65.3325 72.7936 64.3375 70.9391 62.3473C69.1375 60.4141 68.2367 57.9975 68.2367 55.0977C68.2367 52.5958 68.8196 49.9518 69.9853 47.1656C71.204 44.3795 72.8201 41.7639 74.8337 39.3189C76.8472 36.8171 79.0727 34.7985 81.5101 33.2633C83.9476 31.6712 86.438 30.8752 88.9814 30.8752C90.3591 30.8752 91.6308 31.2448 92.7965 31.9839C94.0152 32.7231 94.6246 34.2299 94.6246 36.5043C94.6246 38.6082 94.0417 40.5983 92.876 42.4747C91.7103 44.2942 90.1471 45.9147 88.1866 47.3362C86.226 48.7577 84.0535 49.9234 81.6691 50.8331C79.3376 51.7429 76.9797 52.3399 74.5952 52.6242C74.5422 52.8517 74.4893 53.1644 74.4363 53.5624C74.4363 53.9036 74.4363 54.3016 74.4363 54.7565C74.4363 55.78 74.5952 56.8319 74.9131 57.9122C75.2311 58.9357 75.8139 59.8171 76.6617 60.5562C77.5625 61.2954 78.8872 61.665 80.6358 61.665C83.4442 61.665 86.1731 60.6984 88.8224 58.7651C91.5248 56.775 93.8828 54.3016 95.8963 51.3449C96.3732 49.0136 97.221 46.7108 98.4397 44.4363C99.6584 42.1619 101.142 40.0865 102.891 38.2101C104.692 36.3337 106.626 34.827 108.693 33.6897C110.812 32.5525 112.958 31.9839 115.131 31.9839C116.562 31.9839 117.86 32.3535 119.025 33.0927C120.244 33.8319 120.854 35.3671 120.854 37.6984C120.854 40.4846 119.926 42.958 118.072 45.1187C116.27 47.2794 113.912 49.042 110.998 50.4067C108.136 51.7145 105.09 52.5674 101.857 52.9654C101.804 53.2497 101.751 53.5624 101.698 53.9036C101.698 54.1879 101.698 54.5575 101.698 55.0124C101.698 56.0358 101.831 57.0878 102.096 58.1681C102.414 59.2485 102.997 60.1867 103.844 60.9827C104.692 61.7219 105.964 62.0915 107.66 62.0915C109.938 62.0915 112.217 61.3807 114.495 59.9592C116.826 58.5377 118.972 56.6897 120.933 54.4153C122.947 52.0841 124.589 49.5822 125.861 46.9098L127.292 48.1038C125.861 51.5155 124.006 54.5575 121.728 57.2299C119.502 59.8455 117.038 61.9209 114.336 63.4561C111.634 64.9914 108.852 65.759 105.99 65.759ZM75.4695 49.8949C76.9532 49.3263 78.5163 48.5871 80.1589 47.6774C81.8545 46.7108 83.4442 45.6304 84.9278 44.4363C86.4645 43.1854 87.7097 41.8776 88.6635 40.513C89.6173 39.0915 90.0941 37.6415 90.0941 36.1632C90.0941 35.7083 89.9882 35.3671 89.7762 35.1397C89.6173 34.8554 89.2463 34.7132 88.6635 34.7132C87.5507 34.7132 86.332 35.1681 85.0073 36.0779C83.7356 36.9308 82.4639 38.0964 81.1922 39.5748C79.9735 41.0532 78.8607 42.7021 77.854 44.5216C76.8472 46.2843 76.0524 48.0754 75.4695 49.8949ZM102.732 49.8949C104.109 49.3832 105.567 48.7577 107.103 48.0185C108.693 47.2225 110.177 46.3127 111.554 45.2892C112.932 44.2658 114.071 43.1286 114.972 41.8776C115.873 40.5698 116.323 39.1483 116.323 37.6131C116.323 36.9308 116.217 36.4759 116.005 36.2485C115.793 35.9642 115.396 35.822 114.813 35.822C113.329 35.822 111.793 36.5043 110.203 37.869C108.613 39.1768 107.156 40.911 105.832 43.0717C104.507 45.1755 103.474 47.4499 102.732 49.8949Z" fill="white"/>
<path d="M165.335 64.2237C163.268 64.2237 161.732 63.5698 160.725 62.2621C159.718 60.9543 159.215 59.3906 159.215 57.5711C159.215 56.2633 159.4 54.9555 159.771 53.6477C160.142 52.3399 160.513 51.0606 160.884 49.8096C161.255 48.5019 161.44 47.3362 161.44 46.3127C161.44 45.3461 161.255 44.6922 160.884 44.3511C160.566 43.953 160.142 43.754 159.612 43.754C158.393 43.754 156.963 44.7491 155.32 46.7392C153.73 48.7293 151.743 51.6292 149.359 55.4388C148.511 56.8035 147.716 58.2534 146.974 59.7886C146.233 61.267 145.57 62.5179 144.987 63.5414C144.511 63.5414 143.875 63.4561 143.08 63.2855C142.338 63.115 141.676 62.8591 141.093 62.5179C140.51 62.2336 140.219 61.8356 140.219 61.3239C140.219 60.8121 140.483 59.8171 141.013 58.3387C141.543 56.8603 142.153 55.1545 142.841 53.2213C143.53 51.2312 144.14 49.2979 144.669 47.4215C145.199 45.4883 145.464 43.8677 145.464 42.56C145.464 41.7639 145.332 41.1384 145.067 40.6836C144.802 40.2287 144.378 40.0012 143.795 40.0012C142.682 40.0012 141.331 40.712 139.742 42.1335C138.205 43.555 136.562 45.4314 134.814 47.7627C133.118 50.0371 131.502 52.5958 129.965 55.4388C128.482 58.225 127.263 61.0396 126.309 63.8826C125.726 63.8826 125.011 63.7404 124.163 63.4561C123.315 63.2287 122.574 62.9159 121.938 62.5179C121.302 62.1768 120.984 61.864 120.984 61.5797C120.984 61.5229 121.169 60.7268 121.54 59.1916C121.911 57.5995 122.362 55.6378 122.892 53.3066C123.421 50.9753 123.978 48.5871 124.561 46.1422C125.143 43.6972 125.647 41.5649 126.071 39.7454C126.23 39.1199 126.813 38.5797 127.819 38.1248C128.826 37.6131 129.7 37.3572 130.442 37.3572C131.184 37.3572 131.82 37.6131 132.35 38.1248C132.88 38.6366 133.145 39.3189 133.145 40.1718C133.145 40.7404 133.039 41.5649 132.827 42.6452C132.615 43.7256 132.35 44.9481 132.032 46.3127C133.145 44.7206 134.31 43.157 135.529 41.6218C136.801 40.0297 138.099 38.6082 139.424 37.3572C140.801 36.1063 142.153 35.1112 143.477 34.3721C144.855 33.6329 146.206 33.2633 147.531 33.2633C149.491 33.2633 150.816 34.0309 151.505 35.5661C152.194 37.0445 152.538 38.665 152.538 40.4277C152.538 41.1669 152.485 41.9061 152.379 42.6452C152.273 43.3276 152.114 44.0383 151.902 44.7775C151.743 45.4598 151.505 46.2843 151.187 47.2509C152.194 45.6588 153.28 44.2089 154.446 42.9011C155.664 41.5365 156.963 40.4561 158.34 39.6601C159.718 38.864 161.175 38.466 162.712 38.466C164.778 38.466 166.209 39.1483 167.004 40.513C167.799 41.8208 168.196 43.2707 168.196 44.8628C168.196 46.3412 167.958 47.9048 167.481 49.5538C167.057 51.1459 166.606 52.6811 166.13 54.1595C165.706 55.581 165.494 56.8035 165.494 57.827C165.494 58.3956 165.626 58.9357 165.891 59.4475C166.156 59.9023 166.686 60.1298 167.481 60.1298C168.911 60.1298 170.289 59.419 171.614 57.9975C172.938 56.576 174.157 54.8418 175.27 52.7948C176.436 50.691 177.416 48.7009 178.211 46.8245L179.562 48.6156C178.714 50.9468 177.601 53.335 176.224 55.78C174.899 58.1681 173.336 60.1582 171.534 61.7503C169.733 63.3993 167.666 64.2237 165.335 64.2237Z" fill="white"/>
</g>
<defs>
<filter id="filter0_d_5_15" x="0" y="0" width="245" height="77" filterUnits="userSpaceOnUse" color-interpolation-filters="sRGB">
<feFlood flood-opacity="0" result="BackgroundImageFix"/>
<feColorMatrix in="SourceAlpha" type="matrix" values="0 0 0 0 0 0 0 0 0 0 0 0 0 0 0 0 0 0 127 0" result="hardAlpha"/>
<feOffset dy="4"/>
<feGaussianBlur stdDeviation="2"/>
<feComposite in2="hardAlpha" operator="out"/>
<feColorMatrix type="matrix" values="0 0 0 0 0 0 0 0 0 0 0 0 0 0 0 0 0 0 0.25 0"/>
<feBlend mode="normal" in2="BackgroundImageFix" result="effect1_dropShadow_5_15"/>
<feBlend mode="normal" in="SourceGraphic" in2="effect1_dropShadow_5_15" result="shape"/>
</filter>
</defs>
</svg>
